G04 Layer_Color=255*
%FSLAX25Y25*%
%MOIN*%
G70*
G01*
G75*
%ADD10R,0.04331X0.05512*%
%ADD11R,0.05512X0.04331*%
%ADD12O,0.02362X0.07480*%
%ADD13R,0.04331X0.06693*%
%ADD14R,0.07283X0.12500*%
%ADD15O,0.07480X0.02362*%
%ADD16R,0.01600X0.07000*%
%ADD17R,0.05500X0.06400*%
%ADD24R,0.06000X0.06000*%
%ADD25C,0.06000*%
%ADD26C,0.10800*%
%ADD27R,0.05905X0.05905*%
%ADD28O,0.05905X0.05905*%
%ADD29C,0.05905*%
D10*
X475953Y336500D02*
D03*
X470047D02*
D03*
X419453D02*
D03*
X413547D02*
D03*
X362453Y337000D02*
D03*
X356547D02*
D03*
X305953Y337000D02*
D03*
X300047D02*
D03*
X471453Y303000D02*
D03*
X465547D02*
D03*
X414953Y303500D02*
D03*
X409047D02*
D03*
X358500Y303500D02*
D03*
X352594D02*
D03*
X297547Y304000D02*
D03*
X303453D02*
D03*
X453905Y219500D02*
D03*
X448000D02*
D03*
X403905Y219370D02*
D03*
X398000D02*
D03*
X353776Y219500D02*
D03*
X347870D02*
D03*
X303453Y220000D02*
D03*
X297547D02*
D03*
D11*
X474500Y321547D02*
D03*
Y327453D02*
D03*
X416500Y320547D02*
D03*
Y326453D02*
D03*
X359500Y320547D02*
D03*
Y326453D02*
D03*
X306000Y321047D02*
D03*
Y326953D02*
D03*
X475500Y243547D02*
D03*
Y249453D02*
D03*
X494000Y300953D02*
D03*
Y295047D02*
D03*
X434500Y298000D02*
D03*
Y292094D02*
D03*
X377000Y297453D02*
D03*
Y291547D02*
D03*
X320000Y297953D02*
D03*
Y292047D02*
D03*
X302000Y288953D02*
D03*
Y283047D02*
D03*
X454500Y289953D02*
D03*
Y284047D02*
D03*
X403500Y289953D02*
D03*
Y284047D02*
D03*
X353000Y290000D02*
D03*
Y284095D02*
D03*
X419000Y243547D02*
D03*
Y249453D02*
D03*
X368000Y243547D02*
D03*
Y249453D02*
D03*
X317500Y243547D02*
D03*
Y249453D02*
D03*
D12*
X444500Y238748D02*
D03*
X449500D02*
D03*
X454500D02*
D03*
X459500D02*
D03*
X444500Y257252D02*
D03*
X449500D02*
D03*
X454500D02*
D03*
X459500D02*
D03*
X393500Y238748D02*
D03*
X398500D02*
D03*
X403500D02*
D03*
X408500D02*
D03*
X393500Y257252D02*
D03*
X398500D02*
D03*
X403500D02*
D03*
X408500D02*
D03*
X343000Y238748D02*
D03*
X348000D02*
D03*
X353000D02*
D03*
X358000D02*
D03*
X343000Y257252D02*
D03*
X348000D02*
D03*
X353000D02*
D03*
X358000D02*
D03*
X292000Y238748D02*
D03*
X297000D02*
D03*
X302000D02*
D03*
X307000D02*
D03*
X292000Y257252D02*
D03*
X297000D02*
D03*
X302000D02*
D03*
X307000D02*
D03*
D13*
X286315Y301500D02*
D03*
X275685D02*
D03*
X286315Y336000D02*
D03*
X275685D02*
D03*
D14*
X301441Y351500D02*
D03*
X278500D02*
D03*
D15*
X509252Y224500D02*
D03*
Y229500D02*
D03*
Y234500D02*
D03*
Y239500D02*
D03*
X490748Y224500D02*
D03*
Y229500D02*
D03*
Y234500D02*
D03*
Y239500D02*
D03*
D16*
X482968Y312400D02*
D03*
X485527D02*
D03*
X488087D02*
D03*
X490646D02*
D03*
X493205D02*
D03*
X495764D02*
D03*
X498323D02*
D03*
X500882D02*
D03*
X503441D02*
D03*
X506000D02*
D03*
Y335000D02*
D03*
X503441D02*
D03*
X500882D02*
D03*
X498323D02*
D03*
X495764D02*
D03*
X493205D02*
D03*
X490646D02*
D03*
X488087D02*
D03*
X485527D02*
D03*
X482968D02*
D03*
X425968Y312400D02*
D03*
X428527D02*
D03*
X431087D02*
D03*
X433646D02*
D03*
X436205D02*
D03*
X438764D02*
D03*
X441323D02*
D03*
X443882D02*
D03*
X446441D02*
D03*
X449000D02*
D03*
Y335000D02*
D03*
X446441D02*
D03*
X443882D02*
D03*
X441323D02*
D03*
X438764D02*
D03*
X436205D02*
D03*
X433646D02*
D03*
X431087D02*
D03*
X428527D02*
D03*
X425968D02*
D03*
X368900Y312050D02*
D03*
X371459D02*
D03*
X374018D02*
D03*
X376577D02*
D03*
X379136D02*
D03*
X381695D02*
D03*
X384254D02*
D03*
X386813D02*
D03*
X389372D02*
D03*
X391932D02*
D03*
Y334650D02*
D03*
X389372D02*
D03*
X386813D02*
D03*
X384254D02*
D03*
X381695D02*
D03*
X379136D02*
D03*
X376577D02*
D03*
X374018D02*
D03*
X371459D02*
D03*
X368900D02*
D03*
X312605Y334950D02*
D03*
X315164D02*
D03*
X317723D02*
D03*
X320282D02*
D03*
X322841D02*
D03*
X325400D02*
D03*
X327959D02*
D03*
X330518D02*
D03*
X333077D02*
D03*
X335636D02*
D03*
Y312350D02*
D03*
X333077D02*
D03*
X330518D02*
D03*
X327959D02*
D03*
X325400D02*
D03*
X322841D02*
D03*
X320282D02*
D03*
X317723D02*
D03*
X315164D02*
D03*
X312605D02*
D03*
D17*
X505500Y274500D02*
D03*
X514500D02*
D03*
X505500Y284500D02*
D03*
X514500D02*
D03*
D24*
X485000Y203500D02*
D03*
X434000D02*
D03*
X383500D02*
D03*
X332500D02*
D03*
D25*
X471000D02*
D03*
X457000D02*
D03*
X420000D02*
D03*
X406000D02*
D03*
X369500D02*
D03*
X355500D02*
D03*
X304500D02*
D03*
X318500D02*
D03*
D26*
X509173Y390000D02*
D03*
X280500D02*
D03*
X509173Y195835D02*
D03*
X280827D02*
D03*
D27*
X300000Y385000D02*
D03*
D28*
Y395000D02*
D03*
D29*
X310000Y385000D02*
D03*
Y395000D02*
D03*
X320000Y385000D02*
D03*
Y395000D02*
D03*
X330000Y385000D02*
D03*
Y395000D02*
D03*
X340000Y385000D02*
D03*
Y395000D02*
D03*
X350000Y385000D02*
D03*
Y395000D02*
D03*
X360000Y385000D02*
D03*
Y395000D02*
D03*
X370000Y385000D02*
D03*
Y395000D02*
D03*
X380000Y385000D02*
D03*
Y395000D02*
D03*
X390000Y385000D02*
D03*
Y395000D02*
D03*
X400000Y385000D02*
D03*
Y395000D02*
D03*
X410000Y385000D02*
D03*
Y395000D02*
D03*
X420000Y385000D02*
D03*
Y395000D02*
D03*
X430000Y385000D02*
D03*
Y395000D02*
D03*
X440000Y385000D02*
D03*
Y395000D02*
D03*
X450000Y385000D02*
D03*
Y395000D02*
D03*
X460000Y385000D02*
D03*
Y395000D02*
D03*
X470000Y385000D02*
D03*
Y395000D02*
D03*
X480000Y385000D02*
D03*
Y395000D02*
D03*
X490000Y385000D02*
D03*
Y395000D02*
D03*
M02*
