M48
;Layer_Color=9474304
;FILE_FORMAT=2:5
INCH,LZ
;TYPE=PLATED
T1F00S00C0.02000
T2F00S00C0.02800
T3F00S00C0.03500
T4F00S00C0.03543
T5F00S00C0.10800
%
T01
X04855Y0275
X04975Y0285453
X0487Y0303
X04775
X0456405Y03105
X04545Y02955
X04545Y0275
X043475Y0274953
X04035Y0275
Y029537
X0421Y03035
X04305
X03735
X0364
X0353Y02955
Y0275
X0377Y0275
X038625Y02325
X0391Y0219
X0413Y02325
X0438Y0243
X04425Y02205
X04515Y0185
X04005
X03505
X034063Y02195
X0341Y0231
X03635Y0232
X032Y0275
X03175Y03035
X04675Y02455
X0312Y0232
X0302Y0275
Y02955
X02925
X0308Y03035
X02695Y0275
X02995Y0185
X02925Y0329
Y0336
Y03665
X0284Y0371
Y0377
X0275Y0365
X0314Y0345
X0320282Y03465
X03245Y0343
X0327959Y035
X03315Y0325
X03355Y032
X03515Y0319932
X03505Y0329
X0353Y03545
X0355Y0359
X03605Y03505
X03725Y03605
X0375Y03665
X0385Y0356071
X0384254Y0349
X039Y03435
X03805Y03415
X0376577Y03445
X04Y03465
X0405Y0339
X04085Y0329
X04215Y0319932
X0449Y032
X04445Y0325
X0455Y03375
X04625Y0341
X04675Y0329
Y0319932
X0455Y0355
X0446Y0354
X0441323Y03465
X0437234Y03495
X0433646Y0344
X0431087Y03635
X0425Y0366
X0439Y0368
X044Y04055
X046
X039
X036
X032
X041Y0351
X03875Y0325
X0392Y032
X047Y0344
X04735Y0355
X0487Y03465
X04935Y0346
X0495Y035
X0489Y03665
X0499Y0379
X05025Y03835
X052Y0377
Y03665
Y0355
Y0344
X0501Y03255
X0506Y032
X0488Y0328
T02
X03Y032
X0335Y0409
X0415
X0485
T03
X0471Y02035
X0485
X0457
X0434
X042
X0406
X03835
X03695
X03555
X03325
X03185
X03045
T04
X03Y0385
Y0395
X031
Y0385
X032
Y0395
X033
Y0385
X034
Y0395
X035
Y0385
X036
Y0395
X037
Y0385
X038
Y0395
X039
Y0385
X04
Y0395
X041
Y0385
X042
Y0395
X043
Y0385
X044
Y0395
X045
Y0385
X046
Y0395
X047
Y0385
X048
Y0395
X049
Y0385
T05
X0509173Y0195835
X0280827
X02805Y039
X0509173
M30
